<svg xmlns="http://www.w3.org/2000/svg" style="display:none">
  <symbol id="show-results" viewBox="0 0 16 16">
    <path fill-rule="evenodd" clip-rule="evenodd" d="M2.00033 2H14.0003C14.7367 2 15.3337 2.59695 15.3337 3.33333V12.6667C15.3337 13.403 14.7367 14 14.0003 14H2.00033C1.26395 14 0.666992 13.403 0.666992 12.6667V3.33333C0.666992 2.59695 1.26395 2 2.00033 2ZM2.00033 3.33333V12.6667H14.0003V3.33333H2.00033ZM4.66699 11.3333H6.00033V7.33333H4.66699V11.3333ZM8.66699 11.3333H7.33366V4.66667H8.66699V11.3333ZM10.0003 11.3333H11.3337V6.66667H10.0003V11.3333Z" fill="currentColor"/>
  </symbol>

  <symbol id="copy" viewBox="0 0 16 16">
    <path d="M5.64323 7.52855L3.75738 9.4144C2.97664 10.1954 2.97664 11.4618 3.75738 12.2428C4.53835 13.0238 5.80474 13.0236 6.58581 12.2428L8.47165 10.357L9.41492 11.3002L7.52908 13.1861C6.22731 14.4876 4.11647 14.4871 2.8148 13.1854C1.51336 11.8837 1.51336 9.77351 2.8148 8.47182L4.70065 6.58597L5.64323 7.52855ZM8.47165 2.81497C9.77333 1.5133 11.8842 1.51276 13.1859 2.81428C14.4877 4.11602 14.4877 6.22749 13.1859 7.52924L11.3008 9.4144L10.3575 8.47113L12.2427 6.58597C13.0237 5.80492 13.0237 4.53859 12.2427 3.75754C11.4616 2.97673 10.1952 2.97657 9.41423 3.75754L7.52908 5.6427L6.5865 4.70012L8.47165 2.81497ZM10.8291 6.11434L6.11486 10.8286L5.17228 9.88603L9.88656 5.17176L10.8291 6.11434Z" fill="currentColor"/>
  </symbol>

  <symbol id="create-copy" viewBox="0 0 16 16">
    <path fill-rule="evenodd" clip-rule="evenodd" d="M6.66634 1.3335H13.333C14.1012 1.3335 14.6663 1.89864 14.6663 2.66683V9.3335C14.6663 10.1017 14.1012 10.6668 13.333 10.6668H10.6663V13.3335C10.6663 14.1017 10.1012 14.6668 9.33301 14.6668H2.66634C1.89815 14.6668 1.33301 14.1017 1.33301 13.3335V6.66683C1.33301 5.89864 1.89815 5.3335 2.66634 5.3335H5.33301V2.66683C5.33301 1.89864 5.89815 1.3335 6.66634 1.3335ZM5.33301 6.66683H2.66634V13.3335H9.33301V10.6668H6.66634C5.89815 10.6668 5.33301 10.1017 5.33301 9.3335V6.66683ZM6.66634 2.66683V9.3335H13.333V2.66683H6.66634Z" fill="currentColor"/>
  </symbol>

  <symbol id="hide" viewBox="0 0 16 16">
    <path fill-rule="evenodd" clip-rule="evenodd" d="M1.80475 0.861816L0.861944 1.80463L3.57182 4.5145C3.31939 4.72371 3.06956 4.94839 2.82249 5.18732C2.26968 5.72192 1.76955 6.29266 1.32929 6.86364C1.06362 7.20818 0.874998 7.47922 0.771725 7.64069L0.541992 7.99989L0.771725 8.35909C0.874998 8.52056 1.06362 8.79159 1.32929 9.13614C1.76955 9.70712 2.26968 10.2779 2.82249 10.8125C4.4429 12.3795 6.18165 13.3332 8.00002 13.3332C9.14729 13.3332 10.2629 12.9535 11.337 12.2797L14.1953 15.138L15.1381 14.1952L1.80475 0.861816ZM10.3631 11.3058L9.35466 10.2973C8.95765 10.5319 8.49455 10.6666 8.00002 10.6666C6.52726 10.6666 5.33335 9.47265 5.33335 7.99989C5.33335 7.50535 5.46797 7.04225 5.70256 6.64524L4.51983 5.46251C4.26156 5.67078 4.00453 5.89904 3.74938 6.14579C3.24657 6.63202 2.78827 7.15503 2.38518 7.6778C2.29812 7.79071 2.21767 7.89844 2.14413 7.99989C2.21767 8.10134 2.29812 8.20906 2.38518 8.32197C2.78827 8.84474 3.24657 9.36775 3.74938 9.85399C5.14501 11.2036 6.59663 11.9999 8.00002 11.9999C8.77879 11.9999 9.57242 11.7547 10.3631 11.3058ZM6.71184 7.65452C6.68239 7.76468 6.66668 7.88045 6.66668 7.99989C6.66668 8.73627 7.26364 9.33322 8.00002 9.33322C8.11945 9.33322 8.23523 9.31752 8.34538 9.28806L6.71184 7.65452ZM13.3987 10.5939L12.4559 9.65103C12.8787 9.22365 13.2673 8.77272 13.6149 8.32197C13.7019 8.20906 13.7824 8.10134 13.8559 7.99989C13.7824 7.89844 13.7019 7.79071 13.6149 7.6778C13.2118 7.15503 12.7535 6.63202 12.2507 6.14579C10.855 4.79614 9.4034 3.99989 8.00002 3.99989C7.65181 3.99989 7.30064 4.04891 6.9481 4.14323L5.89345 3.08858C6.58175 2.81414 7.28472 2.66655 8.00002 2.66655C9.81838 2.66655 11.5571 3.6203 13.1775 5.18732C13.7304 5.72192 14.2305 6.29266 14.6707 6.86364C14.9364 7.20818 15.125 7.47922 15.2283 7.64069L15.458 7.99989L15.2283 8.35909C15.125 8.52056 14.9364 8.79159 14.6707 9.13614C14.29 9.62997 13.8644 10.1236 13.3987 10.5939Z" fill="currentColor"/>
  </symbol>

  <symbol id="open-quiz" viewBox="0 0 16 16">
    <g clip-path="url(#clip0_125_21165)">
    <path d="M14.6458 5.3335H8.6875C8.50516 5.3335 8.3303 5.40373 8.20136 5.52876C8.07243 5.65378 8 5.82335 8 6.00016C8 6.17697 8.07243 6.34654 8.20136 6.47157C8.3303 6.59659 8.50516 6.66683 8.6875 6.66683H14.6458C14.8282 6.66683 15.003 6.59659 15.132 6.47157C15.2609 6.34654 15.3333 6.17697 15.3333 6.00016C15.3333 5.82335 15.2609 5.65378 15.132 5.52876C15.003 5.40373 14.8282 5.3335 14.6458 5.3335Z" fill="currentColor"/>
    <path d="M14.613 1.3335H10.053C9.86205 1.3335 9.67892 1.40373 9.54389 1.52876C9.40887 1.65378 9.33301 1.82335 9.33301 2.00016C9.33301 2.17697 9.40887 2.34654 9.54389 2.47157C9.67892 2.59659 9.86205 2.66683 10.053 2.66683H14.613C14.804 2.66683 14.9871 2.59659 15.1221 2.47157C15.2572 2.34654 15.333 2.17697 15.333 2.00016C15.333 1.82335 15.2572 1.65378 15.1221 1.52876C14.9871 1.40373 14.804 1.3335 14.613 1.3335Z" fill="currentColor"/>
    <path d="M7.29065 9.3335H1.37667C1.18845 9.3335 1.00794 9.40373 0.874852 9.52876C0.741761 9.65378 0.666992 9.82335 0.666992 10.0002C0.666992 10.177 0.741761 10.3465 0.874852 10.4716C1.00794 10.5966 1.18845 10.6668 1.37667 10.6668H7.29065C7.47887 10.6668 7.65938 10.5966 7.79247 10.4716C7.92556 10.3465 8.00033 10.177 8.00033 10.0002C8.00033 9.82335 7.92556 9.65378 7.79247 9.52876C7.65938 9.40373 7.47887 9.3335 7.29065 9.3335Z" fill="currentColor"/>
    <path d="M7.29065 14.6668C7.47887 14.6668 7.65938 14.5966 7.79247 14.4716C7.92556 14.3465 8.00033 14.177 8.00033 14.0002C8.00033 13.8234 7.92556 13.6538 7.79247 13.5288C7.65938 13.4037 7.47887 13.3335 7.29065 13.3335H1.37667C1.18845 13.3335 1.00794 13.4037 0.874852 13.5288C0.741761 13.6538 0.666992 13.8234 0.666992 14.0002C0.666992 14.177 0.741761 14.3465 0.874852 14.4716C1.00794 14.5966 1.18845 14.6668 1.37667 14.6668H7.29065Z" fill="currentColor"/>
    <path d="M10.1088 14.3322C10.1676 14.4237 10.2462 14.5009 10.3388 14.5581C10.4315 14.6153 10.5358 14.651 10.6441 14.6627C10.7524 14.6743 10.862 14.6615 10.9647 14.6253C11.0674 14.589 11.1606 14.5303 11.2376 14.4533L12.6649 13.0264L14.0922 14.4509C14.1678 14.5266 14.2591 14.5848 14.3598 14.6212C14.4604 14.6577 14.5679 14.6716 14.6745 14.6618C14.7811 14.6521 14.8843 14.6191 14.9767 14.565C15.069 14.511 15.1483 14.4372 15.2089 14.3491C15.3046 14.1985 15.3446 14.0192 15.322 13.8423C15.2994 13.6654 15.2156 13.5019 15.0851 13.3801L13.6966 11.9992L15.1045 10.5941C15.2276 10.4767 15.3063 10.3206 15.3276 10.152C15.3488 9.98344 15.3112 9.81273 15.221 9.66861C15.1622 9.57707 15.0836 9.49986 14.991 9.44266C14.8984 9.38546 14.794 9.34973 14.6857 9.33811C14.5774 9.32648 14.4679 9.33926 14.3651 9.3755C14.2624 9.41173 14.1692 9.4705 14.0922 9.54748L12.6649 10.972L11.2376 9.54748C11.162 9.47176 11.0707 9.41359 10.97 9.37713C10.8694 9.34066 10.7619 9.32679 10.6553 9.33651C10.5487 9.34622 10.4455 9.37928 10.3531 9.43334C10.2608 9.48739 10.1815 9.56111 10.1209 9.64923C10.0252 9.79985 9.98524 9.9791 10.0078 10.156C10.0304 10.3329 10.1142 10.4964 10.2447 10.6183L11.6357 11.9992L10.2375 13.4043C10.1119 13.5203 10.0304 13.6761 10.007 13.8453C9.98353 14.0144 10.0195 14.1865 10.1088 14.3322Z" fill="currentColor"/>
    <path d="M0.865799 4.74408L2.17197 6.22356C2.4229 6.5074 2.76302 6.66683 3.11765 6.66683C3.47228 6.66683 3.81241 6.5074 4.06333 6.22356L7.0979 2.78636C7.17067 2.70955 7.22905 2.61692 7.26953 2.514C7.31002 2.41108 7.33179 2.29998 7.33354 2.18732C7.3353 2.07466 7.317 1.96276 7.27975 1.85829C7.24249 1.75382 7.18704 1.65891 7.1167 1.57924C7.04636 1.49957 6.96258 1.43676 6.87034 1.39456C6.77811 1.35236 6.67931 1.33164 6.57985 1.33363C6.48039 1.33561 6.3823 1.36027 6.29144 1.40613C6.20058 1.45199 6.1188 1.5181 6.05098 1.60054L3.11765 4.92307L1.91271 3.55826C1.77229 3.41005 1.58657 3.32937 1.39467 3.3332C1.20276 3.33704 1.01967 3.42509 0.88395 3.57882C0.748233 3.73254 0.670493 3.93993 0.667108 4.1573C0.663722 4.37466 0.734954 4.58503 0.865799 4.74408Z" fill="currentColor"/>
    </g>
    <defs>
    <clipPath id="clip0_125_21165">
    <rect width="16" height="16" fill="white"/>
    </clipPath>
    </defs>
  </symbol>
</svg>