<svg width="16" height="16" viewBox="0 0 16 16" fill="none" xmlns="http://www.w3.org/2000/svg">
<path fill-rule="evenodd" clip-rule="evenodd" d="M1.80475 0.861816L0.861944 1.80463L3.57182 4.5145C3.31939 4.72371 3.06956 4.94839 2.82249 5.18732C2.26968 5.72192 1.76955 6.29266 1.32929 6.86364C1.06362 7.20818 0.874998 7.47922 0.771725 7.64069L0.541992 7.99989L0.771725 8.35909C0.874998 8.52056 1.06362 8.79159 1.32929 9.13614C1.76955 9.70712 2.26968 10.2779 2.82249 10.8125C4.4429 12.3795 6.18165 13.3332 8.00002 13.3332C9.14729 13.3332 10.2629 12.9535 11.337 12.2797L14.1953 15.138L15.1381 14.1952L1.80475 0.861816ZM10.3631 11.3058L9.35466 10.2973C8.95765 10.5319 8.49455 10.6666 8.00002 10.6666C6.52726 10.6666 5.33335 9.47265 5.33335 7.99989C5.33335 7.50535 5.46797 7.04225 5.70256 6.64524L4.51983 5.46251C4.26156 5.67078 4.00453 5.89904 3.74938 6.14579C3.24657 6.63202 2.78827 7.15503 2.38518 7.6778C2.29812 7.79071 2.21767 7.89844 2.14413 7.99989C2.21767 8.10134 2.29812 8.20906 2.38518 8.32197C2.78827 8.84474 3.24657 9.36775 3.74938 9.85399C5.14501 11.2036 6.59663 11.9999 8.00002 11.9999C8.77879 11.9999 9.57242 11.7547 10.3631 11.3058ZM6.71184 7.65452C6.68239 7.76468 6.66668 7.88045 6.66668 7.99989C6.66668 8.73627 7.26364 9.33322 8.00002 9.33322C8.11945 9.33322 8.23523 9.31752 8.34538 9.28806L6.71184 7.65452ZM13.3987 10.5939L12.4559 9.65103C12.8787 9.22365 13.2673 8.77272 13.6149 8.32197C13.7019 8.20906 13.7824 8.10134 13.8559 7.99989C13.7824 7.89844 13.7019 7.79071 13.6149 7.6778C13.2118 7.15503 12.7535 6.63202 12.2507 6.14579C10.855 4.79614 9.4034 3.99989 8.00002 3.99989C7.65181 3.99989 7.30064 4.04891 6.9481 4.14323L5.89345 3.08858C6.58175 2.81414 7.28472 2.66655 8.00002 2.66655C9.81838 2.66655 11.5571 3.6203 13.1775 5.18732C13.7304 5.72192 14.2305 6.29266 14.6707 6.86364C14.9364 7.20818 15.125 7.47922 15.2283 7.64069L15.458 7.99989L15.2283 8.35909C15.125 8.52056 14.9364 8.79159 14.6707 9.13614C14.29 9.62997 13.8644 10.1236 13.3987 10.5939Z" fill="#D2D4D8"/>
</svg>
