<svg width="16" height="16" viewBox="0 0 16 16" fill="none" xmlns="http://www.w3.org/2000/svg">
<path d="M6 2C6.74651 2 7.22196 2.31693 7.69922 2.91895C7.73106 2.95912 7.87322 3.14413 7.9082 3.1875C8.01257 3.31687 8.03465 3.33269 8.00195 3.33301H12.667C13.4034 3.33301 14 3.93061 14 4.66699V5.33301L14.1367 5.33984C14.809 5.40814 15.334 5.97665 15.334 6.66699L15.3174 6.81152L13.998 12.752C13.9541 13.4486 13.3747 14 12.667 14H2L1.86426 13.9932C1.23653 13.9295 0.737454 13.4305 0.673828 12.8027L0.666992 12.667V3.33301C0.667168 2.59689 1.26388 2.00018 2 2H6ZM3.31738 6.81152L2.0166 12.667H12.667L12.6826 12.5225L13.9844 6.66699H3.35742C3.34702 6.70001 3.33314 6.74804 3.31738 6.81152ZM2 6.59375L2.01953 6.50684C2.20692 5.74757 2.55626 5.33301 3.33398 5.33301H12.667V4.66699H7.99707C7.51835 4.66443 7.20629 4.43991 6.87109 4.02441C6.82482 3.96706 6.67715 3.7759 6.6543 3.74707C6.40479 3.43235 6.25605 3.33301 6 3.33301H2V6.59375Z" fill="#D2D4D8"/>
</svg>
