<svg width="20" height="20" viewBox="0 0 20 20" fill="none" xmlns="http://www.w3.org/2000/svg">
<path fill-rule="evenodd" clip-rule="evenodd" d="M7.50016 3.3335H17.5002C18.4206 3.3335 19.1668 4.07969 19.1668 5.00016V15.8335C19.1668 16.754 18.4206 17.5002 17.5002 17.5002L7.50016 17.5002H5.8335L2.50016 17.5002C1.57969 17.5002 0.833496 16.754 0.833496 15.8335V5.00016C0.833496 4.07969 1.57969 3.3335 2.50016 3.3335H5.8335H7.50016ZM5.8335 5.00016H2.50016V7.50016H5.8335V5.00016ZM7.50016 7.50016V5.00016H17.5002V7.50016H7.50016ZM5.8335 9.16683H2.50016V11.6668H5.8335V9.16683ZM7.50016 11.6668V9.16683H17.5002V11.6668H7.50016ZM5.8335 13.3335H2.50016V15.8335H5.8335V13.3335ZM7.50016 15.8335V13.3335H17.5002V15.8335H7.50016Z" fill="#69748C"/>
</svg>
