<svg xmlns="http://www.w3.org/2000/svg" style="display:none">
  <symbol id="view-panel-table" viewBox="0 0 20 20">
    <path fill-rule="evenodd" clip-rule="evenodd" d="M7.50016 3.3335H17.5002C18.4206 3.3335 19.1668 4.07969 19.1668 5.00016V15.8335C19.1668 16.754 18.4206 17.5002 17.5002 17.5002L7.50016 17.5002H5.8335L2.50016 17.5002C1.57969 17.5002 0.833496 16.754 0.833496 15.8335V5.00016C0.833496 4.07969 1.57969 3.3335 2.50016 3.3335H5.8335H7.50016ZM5.8335 5.00016H2.50016V7.50016H5.8335V5.00016ZM7.50016 7.50016V5.00016H17.5002V7.50016H7.50016ZM5.8335 9.16683H2.50016V11.6668H5.8335V9.16683ZM7.50016 11.6668V9.16683H17.5002V11.6668H7.50016ZM5.8335 13.3335H2.50016V15.8335H5.8335V13.3335ZM7.50016 15.8335V13.3335H17.5002V15.8335H7.50016Z" fill="currentColor"/>
  </symbol>

  <symbol id="view-panel-grid" viewBox="0 0 20 20">
    <path fill-rule="evenodd" clip-rule="evenodd" d="M16.6665 1.6665H3.33317C2.4127 1.6665 1.6665 2.4127 1.6665 3.33317V16.6665C1.6665 17.587 2.4127 18.3332 3.33317 18.3332H16.6665C17.587 18.3332 18.3332 17.587 18.3332 16.6665V3.33317C18.3332 2.4127 17.587 1.6665 16.6665 1.6665ZM3.33317 16.6665V10.8332H9.1665V16.6665H3.33317ZM10.8332 16.6665H16.6665V10.8332H10.8332V16.6665ZM10.8332 9.1665H16.6665V3.33317H10.8332V9.1665ZM9.1665 3.33317H3.33317V9.1665H9.1665V3.33317Z" fill="currentColor"/>
  </symbol>
</svg>
